<?xml version="1.0"?>
<svg version="1.1" width="16" height="16" xmlns="http://www.w3.org/2000/svg"><defs/><circle id="Circle" fill="rgba(0,0,0,1.000000)" stroke="none" cx="8" cy="8" r="1"/><path id="New Path" fill="rgba(0,0,0,1.000000)" stroke="none" d="M -0.000000 7.999996 L 1.000000 7.999991 A 7.000000 7.000000 180.000000 1 1 1.000000 8.000000 L -0.000000 8.000000 A 8.000000 8.000000 360.000000 1 0 -0.000000 7.999996 Z"/><path id="New Path" fill="rgba(0,0,0,1.000000)" stroke="none" d="M 5.000000 7.999999 L 6.000000 7.999997 A 2.000000 2.000000 180.000000 1 1 6.000000 8.000000 L 5.000000 8.000000 A 3.000000 3.000000 360.000000 1 0 5.000000 7.999999 Z"/><path id="New Path" fill="rgba(0,0,0,1.000000)" stroke="none" d="M 3.000000 7.999998 L 4.000000 7.999995 A 4.000000 4.000000 180.000000 1 1 4.000000 8.000000 L 3.000000 8.000000 A 5.000000 5.000000 360.000000 1 0 3.000000 7.999998 Z"/></svg>
