<?xml version="1.0"?>
<svg version="1.1" width="16" height="16" xmlns="http://www.w3.org/2000/svg"><defs/><path id="plus" fill="rgba(0,0,0,1.000000)" stroke="none" d="M 14.000000 10.000000 L 14.000000 12.000000 L 16.000000 12.000000 L 16.000000 14.000000 L 14.000000 14.000000 L 14.000000 16.000000 L 12.000000 16.000000 L 12.000000 14.000000 L 10.000000 14.000000 L 10.000000 12.000000 L 12.000000 12.000000 L 12.000000 10.000000 L 14.000000 10.000000 Z"/><path id="polygon" fill="rgba(0,0,0,1.000000)" stroke="none" d="M 1.000000 1.000000 L 8.000000 3.000000 L 15.000000 1.000000 L 13.000000 8.000000 L 13.500000 9.000000 L 12.500000 9.000000 L 12.000000 8.000000 L 13.500000 2.500000 L 8.000000 4.500000 L 3.000000 3.000000 L 5.500000 8.000000 L 3.000000 13.000000 L 8.000000 12.000000 L 9.000000 12.500000 L 9.000000 13.500000 L 8.000000 13.000000 L 1.000000 15.000000 L 4.000000 8.000000 L 1.000000 1.000000 Z"/></svg>
