<?xml version="1.0"?>
<svg version="1.1" width="48" height="48" xmlns="https://www.w3.org/2000/svg"><defs><radialGradient id="radialGrad1" cx="24" cy="12" fx="24" fy="12" r="36.013886210738214" fr="0" gradientUnits="userSpaceOnUse"><stop offset="0.18742949234488315" stop-color="rgb(138,226,52)" stop-opacity="1"/><stop offset="0.76083803384367443" stop-color="rgb(115,210,22)" stop-opacity="1"/><stop offset="0.97076923076923072" stop-color="rgb(78,154,6)" stop-opacity="1"/></radialGradient><radialGradient id="radialGrad2" cx="12" cy="14" fx="12" fy="14" r="11.313708498984761" fr="0" gradientUnits="userSpaceOnUse"><stop offset="0.14285714285714285" stop-color="rgb(252,233,79)" stop-opacity="1"/><stop offset="0.8571428571428571" stop-color="rgb(237,212,0)" stop-opacity="1"/></radialGradient><radialGradient id="radialGrad3" cx="32" cy="14" fx="32" fy="14" r="9.8996241453594109" fr="0" gradientUnits="userSpaceOnUse"><stop offset="0.14285714285714285" stop-color="rgb(252,233,79)" stop-opacity="1"/><stop offset="0.8571428571428571" stop-color="rgb(237,212,0)" stop-opacity="1"/></radialGradient><radialGradient id="radialGrad4" cx="11" cy="14" fx="11" fy="14" r="4.2426406871192839" fr="0" gradientUnits="userSpaceOnUse"><stop offset="0.15605560938517252" stop-color="rgb(52,101,164)" stop-opacity="1"/><stop offset="0.5" stop-color="rgb(32,74,135)" stop-opacity="1"/></radialGradient><radialGradient id="radialGrad5" cx="31" cy="14" fx="31" fy="14" r="4.2426406871192839" fr="0" gradientUnits="userSpaceOnUse"><stop offset="0.15605560938517252" stop-color="rgb(52,101,164)" stop-opacity="1"/><stop offset="0.5" stop-color="rgb(32,74,135)" stop-opacity="1"/></radialGradient></defs><path id="Head" fill="url(#radialGrad1)" stroke="rgba(77,154,6,0.762774)" d="M 22.500000 20.000000 C 22.500000 21.000000 23.000000 21.500000 24.000000 21.500000 C 25.000000 21.500000 25.500000 21.000000 25.500000 20.000000 C 25.500000 2.500000 45.500000 6.000000 43.415847 24.057368 A 21.500000 15.000000 0.000000 1 1 4.584153 24.057368 C 2.500000 6.000000 22.500000 2.500000 22.500000 20.000000 Z"/><path id="Left Eye" fill="url(#radialGrad2)" stroke="rgba(196,160,0,1.000000)" d="M 7.500000 16.000000 C 7.500000 12.000000 10.000000 9.500000 14.000000 9.500000 C 18.000000 9.500000 20.500000 12.000000 20.500000 16.000000 C 20.500000 20.000000 18.000000 22.500000 14.000000 22.500000 C 10.000000 22.500000 7.500000 20.000000 7.500000 16.000000 Z"/><path id="Right Eye" fill="url(#radialGrad3)" stroke="rgba(196,160,0,1.000000)" d="M 27.500000 16.000000 C 27.500000 12.000000 30.000000 9.500000 34.000000 9.500000 C 38.000000 9.500000 40.500000 12.000000 40.500000 16.000000 C 40.500000 20.000000 38.000000 22.500000 34.000000 22.500000 C 30.000000 22.500000 27.500000 20.000000 27.500000 16.000000 Z"/><path id="Left Pupil" fill="url(#radialGrad4)" stroke="rgba(32,74,135,1.000000)" d="M 10.000000 13.000000 C 10.500000 12.500000 12.500000 12.500000 13.000000 13.000000 C 13.500000 13.500000 13.500000 15.500000 13.000000 16.000000 C 12.500000 16.500000 10.500000 16.500000 10.000000 16.000000 C 9.500000 15.500000 9.500000 13.500000 10.000000 13.000000 Z"/><path id="Right Pupil" fill="url(#radialGrad5)" stroke="rgba(32,74,135,1.000000)" d="M 30.000000 13.000000 C 30.500000 12.500000 32.500000 12.500000 33.000000 13.000000 C 33.500000 13.500000 33.500000 15.500000 33.000000 16.000000 C 32.500000 16.500000 30.500000 16.500000 30.000000 16.000000 C 29.500000 15.500000 29.500000 13.500000 30.000000 13.000000 Z"/><path id="Mouth" fill="rgba(78,154,6,1.000000)" stroke="none" d="M 24.000000 41.000000 C 34.000000 41.000000 39.000000 37.000000 40.000000 30.000000 L 41.000000 30.000000 C 40.000000 38.000000 35.000000 42.000000 24.000000 42.000000 C 13.000000 42.000000 8.000000 38.000000 7.000000 30.000000 L 8.000000 30.000000 C 9.000000 37.000000 14.000000 41.000000 24.000000 41.000000 Z"/></svg>
