<?xml version="1.0" encoding="UTF-8" standalone="no"?>
<svg version="1.1" width="48" height="48">
<path style="fill:#73d216;stroke:#4e9a06;fill-opacity:1.000000;stroke-opacity:1.000000" d="M 22.500000 22.000000 C 22.500000 23.500000 23.500000 23.500000 24.000000 23.500000 C 24.500000 23.500000 25.500000 23.500000 25.500000 22.000000 C 25.500000 2.500000 45.500000 7.500000 43.396935 24.029698 A 21.500000 15.000000 6.283185 1 1 4.594090 24.042810 C 2.500000 7.500000 22.500000 2.500000 22.500000 22.000000 Z" />
<path style="fill:#edd400;stroke:#c4a000;fill-opacity:1.000000;stroke-opacity:1.000000" d="M 13.500000 10.500000 C 17.000000 10.500000 20.500000 14.000000 20.500000 17.500000 C 20.500000 21.000000 17.000000 24.500000 13.500000 24.500000 C 10.000000 24.500000 6.500000 21.000000 6.500000 17.500000 C 6.500000 14.000000 10.000000 10.500000 13.500000 10.500000 Z" />
<path style="fill:#edd400;stroke:#c4a000;fill-opacity:1.000000;stroke-opacity:1.000000" d="M 34.498446 10.502670 C 37.998446 10.502670 41.498446 14.002670 41.498446 17.502670 C 41.498446 21.002670 37.998446 24.502670 34.498446 24.502670 C 30.998446 24.502670 27.498446 21.002670 27.498446 17.502670 C 27.498446 14.002670 30.998446 10.502670 34.498446 10.502670 Z" />
<path style="fill:#3465a4;stroke:#3465a4;fill-opacity:1.000000;stroke-opacity:1.000000" d="M 10.000000 14.000000 C 10.727128 13.306278 12.291440 13.310218 13.000000 14.000000 C 13.707112 14.716582 13.705789 16.334379 13.000000 17.000000 C 12.279570 17.683040 10.671346 17.661980 10.000000 17.000000 C 9.268645 16.325779 9.308037 14.613372 10.000000 14.000000 Z" />
<path style="fill:#3465a4;stroke:#3465a4;fill-opacity:1.000000;stroke-opacity:1.000000" d="M 30.946266 14.083088 C 31.673394 13.389366 33.237706 13.393306 33.946266 14.083088 C 34.653378 14.799670 34.652055 16.417467 33.946266 17.083088 C 33.225836 17.766128 31.617612 17.745068 30.946266 17.083088 C 30.214911 16.408867 30.254303 14.696460 30.946266 14.083088 Z" />
<path style="fill:#a8a8a8;stroke:#4e9a06;fill-opacity:1.000000;stroke-opacity:1.000000" d="M 6.500000 30.000000 C 5.500000 36.500000 15.000000 41.500000 24.000000 41.500000 C 33.000000 41.500000 42.500000 36.500000 41.500000 30.000000 C 42.500000 36.500000 33.000000 41.500000 24.000000 41.500000 C 15.000000 41.500000 5.500000 36.500000 6.500000 30.000000 Z" />
</svg>
