<?xml version="1.0"?>
<svg version="1.1" width="24" height="24" xmlns="http://www.w3.org/2000/svg"><defs><radialGradient id="radialGrad1" cx="12" cy="10" fx="12" fy="10" r="13" fr="0" gradientUnits="userSpaceOnUse"><stop offset="0.15384615384615385" stop-color="rgb(138,226,52)" stop-opacity="1"/><stop offset="0.69230769230769229" stop-color="rgb(115,210,22)" stop-opacity="1"/><stop offset="0.92307692307692313" stop-color="rgb(78,154,6)" stop-opacity="1"/></radialGradient><radialGradient id="radialGrad2" cx="15" cy="7" fx="15" fy="7" r="4.2426406871192839" fr="0" gradientUnits="userSpaceOnUse"><stop offset="0.16666666666666666" stop-color="rgb(252,233,79)" stop-opacity="1"/><stop offset="0.67500813802083337" stop-color="rgb(237,212,0)" stop-opacity="1"/></radialGradient><radialGradient id="radialGrad3" cx="7" cy="7" fx="7" fy="7" r="4.2426406871192839" fr="0" gradientUnits="userSpaceOnUse"><stop offset="0.16666666666666666" stop-color="rgb(252,233,79)" stop-opacity="1"/><stop offset="0.67500813802083337" stop-color="rgb(237,212,0)" stop-opacity="1"/></radialGradient></defs><path id="New Path" fill="url(#radialGrad1)" stroke="rgba(77,154,6,0.827703)" d="M 11.356087 11.500000 L 12.500000 11.500000 C 11.500000 2.000000 22.500000 3.000000 20.405967 11.971666 A 9.500000 6.500000 0.000000 1 1 3.555538 12.022225 C 1.500000 3.000000 12.500000 2.000000 11.356087 11.500000 Z"/><path id="right_eye" fill="url(#radialGrad2)" stroke="rgba(196,160,0,1.000000)" d="M 13.500000 8.500000 C 13.500000 7.000000 15.000000 5.448669 16.500000 5.500000 C 18.000000 5.500000 19.500000 7.000000 19.500000 8.500000 C 19.500000 10.000000 18.000000 11.550704 16.436300 11.500000 C 15.000000 11.500000 13.500000 10.000000 13.500000 8.500000 Z"/><path id="left_eye" fill="url(#radialGrad3)" stroke="rgba(196,160,0,1.000000)" d="M 4.500000 8.549790 C 4.500000 7.000000 6.000000 5.500000 7.500000 5.500000 C 9.000000 5.500000 10.500000 7.000000 10.500000 8.500000 C 10.500000 10.000000 9.000000 11.500000 7.500000 11.500000 C 6.000000 11.500000 4.500000 10.000000 4.500000 8.549790 Z"/><path id="left_pupil" fill="rgba(32,74,135,1.000000)" stroke="rgba(32,74,135,1.000000)" d="M 6.022670 6.994013 C 6.272168 6.769519 6.795266 6.773829 7.022670 6.994013 C 7.206350 7.225578 7.244816 7.763878 7.022670 7.994013 C 6.752183 8.214840 6.260760 8.224405 6.022670 7.994013 C 5.799016 7.744869 5.762947 7.221793 6.022670 6.994013 Z"/><path id="right_pupil" fill="rgba(32,74,135,1.000000)" stroke="rgba(32,74,135,1.000000)" d="M 15.021735 6.990495 C 15.271234 6.766000 15.794332 6.770310 16.021735 6.990495 C 16.205415 7.222059 16.243882 7.760359 16.021735 7.990495 C 15.751249 8.211321 15.259826 8.220887 15.021735 7.990495 C 14.798081 7.741350 14.762012 7.218275 15.021735 6.990495 Z"/><path id="mouth" fill="rgba(78,154,6,1.000000)" stroke="none" d="M 5.000000 15.000000 L 6.000000 15.000000 C 6.000000 17.000000 8.000000 19.000000 12.000000 19.000000 C 16.000000 19.000000 18.000000 17.000000 18.000000 15.000000 L 19.000000 15.000000 C 19.000000 18.000000 16.000000 20.000000 12.000000 20.000000 C 8.000000 20.000000 5.000000 18.000000 5.000000 15.000000 Z"/></svg>
