<?xml version="1.0" encoding="UTF-8" standalone="no"?>
<svg version="1.1" width="24" height="24">
<path style="fill:#73d216;stroke:#4e9a06;fill-opacity:1.000000;stroke-opacity:1.000000" d="M 11.500000 10.500000 L 12.500000 10.500000 C 12.500000 1.500000 22.000000 3.500000 20.399965 10.499967 A 10.500000 7.500000 6.283185 1 1 3.604327 10.495882 C 2.000000 3.500000 11.500000 1.500000 11.500000 10.500000 Z" />
<path style="fill:#edd400;stroke:#edd400;fill-opacity:1.000000;stroke-opacity:1.000000" d="M 7.000000 5.500000 C 8.500000 5.500000 9.500000 6.500000 9.500000 8.000000 C 9.500000 9.500000 8.500000 10.500000 7.000000 10.500000 C 5.500000 10.500000 4.500000 9.500000 4.500000 8.000000 C 4.500000 6.500000 5.500000 5.500000 7.000000 5.500000 Z" />
<path style="fill:#edd400;stroke:#edd400;fill-opacity:1.000000;stroke-opacity:1.000000" d="M 16.993989 5.509233 C 18.493989 5.509233 19.493989 6.509233 19.493989 8.009233 C 19.493989 9.509233 18.493989 10.509233 16.993989 10.509233 C 15.493989 10.509233 14.493989 9.509233 14.493989 8.009233 C 14.493989 6.509233 15.493989 5.509233 16.993989 5.509233 Z" />
<path style="fill:#3465a4;stroke:#3465a4;fill-opacity:1.000000;stroke-opacity:1.000000" d="M 5.482592 6.490932 C 5.729070 6.256972 6.240161 6.267366 6.482592 6.490932 C 6.718773 6.748839 6.712581 7.252852 6.482592 7.490932 C 6.227451 7.716955 5.737352 7.745479 5.482592 7.490932 C 5.242069 7.240555 5.243983 6.738815 5.482592 6.490932 Z" />
<path style="fill:#3465a4;stroke:#3465a4;fill-opacity:1.000000;stroke-opacity:1.000000" d="M 15.417146 6.682077 C 15.663624 6.448117 16.174716 6.458512 16.417146 6.682077 C 16.653327 6.939984 16.647135 7.443997 16.417146 7.682077 C 16.162005 7.908100 15.671906 7.936625 15.417146 7.682077 C 15.176623 7.431700 15.178537 6.929961 15.417146 6.682077 Z" />
<path style="fill:#4e9a06;stroke:#4e9a06;fill-opacity:1.000000;stroke-opacity:1.000000" d="M 4.500000 14.000000 C 4.500000 16.500000 7.500000 19.500000 12.000000 19.500000 C 16.500000 19.500000 19.500000 16.500000 19.500000 14.000000 C 19.500000 16.500000 16.500000 19.500000 12.000000 19.500000 C 7.500000 19.500000 4.500000 16.500000 4.500000 14.000000 Z" />
</svg>
