<?xml version="1.0" encoding="UTF-8" standalone="no"?>
<svg version="1.1" width="128" height="128">
<path style="fill:#73d216;stroke:#4e9a06;fill-opacity:1.000000;stroke-opacity:1.000000" d="M 60.500000 55.500000 C 60.500000 57.551654 62.500000 58.500000 64.000000 58.500000 C 65.500000 58.500000 67.500000 57.500000 67.500000 55.500000 C 67.500000 4.500000 116.000000 15.000000 111.242554 58.507457 A 55.500000 40.000000 0.000000 1 1 16.779723 58.481438 C 12.000000 15.000000 60.500000 4.500000 60.500000 55.500000 Z" />
<path style="fill:#fce94f;stroke:#c4a000;fill-opacity:1.000000;stroke-opacity:1.000000" d="M 39.500000 23.500000 C 48.500000 23.500000 56.500000 31.500000 56.500000 40.500000 C 56.500000 49.500000 48.500000 57.500000 39.500000 57.500000 C 30.500000 57.500000 22.500000 49.500000 22.500000 40.500000 C 22.500000 31.500000 30.500000 23.500000 39.500000 23.500000 Z" />
<path style="fill:#fce94f;stroke:#c4a000;fill-opacity:1.000000;stroke-opacity:1.000000" d="M 105.500000 40.500000 C 105.500000 31.500000 97.500000 23.500000 88.500000 23.500000 C 79.500000 23.500000 71.500000 31.500000 71.500000 40.500000 C 71.500000 49.500000 79.500000 57.500000 88.500000 57.500000 C 97.500000 57.500000 105.500000 49.500000 105.500000 40.500000 Z" />
<path style="fill:#3465a4;stroke:#204a87;fill-opacity:1.000000;stroke-opacity:1.000000" d="M 28.500000 33.500000 C 30.000000 32.000000 33.000000 32.000000 34.500000 33.500000 C 36.000000 35.000000 36.000000 38.000000 34.500000 39.500000 C 33.000000 41.000000 30.000000 41.000000 28.500000 39.500000 C 27.000000 38.000000 27.000000 35.000000 28.500000 33.500000 Z" />
<path style="fill:#3465a4;stroke:#204a87;fill-opacity:1.000000;stroke-opacity:1.000000" d="M 82.500000 34.500000 C 81.000000 33.000000 78.000000 33.000000 76.495819 34.594767 C 75.000000 36.000000 75.000000 39.000000 76.500000 40.500000 C 78.000000 42.000000 81.000000 42.000000 82.500000 40.500000 C 84.000000 39.000000 84.000000 36.000000 82.500000 34.500000 Z" />
<path style="fill:#d3d7cf;stroke:#babdb6;fill-opacity:1.000000;stroke-opacity:1.000000" d="M 9.000000 32.000000 C 9.500000 30.500000 11.500000 28.000000 12.365356 28.603696 C 13.000000 29.500000 11.000000 33.000000 9.500000 33.500000 L 8.500000 33.500000 C 8.000000 33.000000 6.000000 29.500000 6.713128 28.713254 C 7.500000 28.000000 9.000000 30.000000 9.000000 32.000000 Z" />
<path style="fill:#a8a8a8;stroke:#545454;fill-opacity:1.000000;stroke-opacity:1.000000" d="M 8.000000 32.000000 C 8.500000 31.500000 9.500000 31.500000 10.000000 32.000000 C 10.500000 32.500000 10.500000 33.500000 10.000000 34.000000 C 9.500000 34.500000 8.500000 34.500000 8.000000 34.000000 C 7.500000 33.500000 7.500000 32.500000 8.000000 32.000000 Z" />
<path style="fill:#ef2929;stroke:#a40000;fill-opacity:1.000000;stroke-opacity:1.000000" d="M 98.539658 96.431057 L 92.000000 101.500000 C 97.539658 95.431057 99.039658 90.931057 99.039658 85.431057 C 98.539658 81.931057 93.781731 78.142979 87.184752 73.801913 A 4.217716 3.679390 2.139150 0 1 90.979041 66.341360 C 100.539658 72.431057 103.539658 79.431057 103.539658 83.431057 C 103.539658 87.431057 102.539658 91.431057 98.539658 96.431057 Z" />
<path style="fill:#a8a8a8;stroke:#4e9a06;fill-opacity:1.000000;stroke-opacity:1.000000" d="M 19.500000 80.000000 C 19.500000 91.500000 41.500000 110.500000 64.000000 110.500000 C 86.500000 110.500000 108.500000 91.500000 108.500000 80.000000 C 108.500000 91.500000 86.500000 110.500000 64.000000 110.500000 C 41.500000 110.500000 19.500000 91.500000 19.500000 80.000000 Z" />
</svg>
