<?xml version="1.0"?>
<svg version="1.1" width="128" height="128"><defs><radialGradient id="radialGrad1" cx="64" cy="11.5" fx="64" fy="11.5" r="116.5" fr="0" gradientUnits="userSpaceOnUse"><stop offset="0.34763948497854075" stop-color="rgb(138,226,52)" stop-opacity="1"/><stop offset="0.94849785407725318" stop-color="rgb(78,154,6)" stop-opacity="1"/><stop offset="0.017167381974248927" stop-color="rgb(115,210,22)" stop-opacity="1"/><stop offset="0.46781115879828328" stop-color="rgb(138,226,52)" stop-opacity="1"/><stop offset="0.79828326180257514" stop-color="rgb(115,210,22)" stop-opacity="1"/></radialGradient><radialGradient id="radialGrad2" cx="32.5" cy="34.5" fx="32.5" fy="34.5" r="29.732137494637016" fr="0" gradientUnits="userSpaceOnUse"><stop offset="0.11913056244721283" stop-color="rgb(252,233,79)" stop-opacity="1"/><stop offset="0.81767825564822638" stop-color="rgb(237,212,0)" stop-opacity="1"/></radialGradient><radialGradient id="radialGrad3" cx="84.5" cy="34.5" fx="84.5" fy="34.5" r="30.405591591021544" fr="0" gradientUnits="userSpaceOnUse"><stop offset="0.11627906976744186" stop-color="rgb(252,233,79)" stop-opacity="1"/><stop offset="0.81395348837209303" stop-color="rgb(237,212,0)" stop-opacity="1"/></radialGradient><radialGradient id="radialGrad4" cx="30" cy="36" fx="30" fy="36" r="8.4852813742385695" fr="0" gradientUnits="userSpaceOnUse"><stop offset="0.16666666666666666" stop-color="rgb(52,101,164)" stop-opacity="1"/><stop offset="0.66800520613386827" stop-color="rgb(32,74,135)" stop-opacity="1"/></radialGradient><radialGradient id="radialGrad5" cx="82" cy="36" fx="82" fy="36" r="8.4852813742385695" fr="0" gradientUnits="userSpaceOnUse"><stop offset="0.16666666666666666" stop-color="rgb(52,101,164)" stop-opacity="1"/><stop offset="0.66800520613386827" stop-color="rgb(32,74,135)" stop-opacity="1"/></radialGradient></defs><path id="Head" fill="url(#radialGrad1)" stroke="rgba(77,154,6,0.770073)" d="M 62.500000 50.000000 C 62.500000 51.000000 63.000000 51.500000 64.000000 51.500000 C 65.000000 51.500000 65.500000 50.500000 65.500000 50.000000 C 65.500000 3.500000 122.000000 11.500000 112.469786 54.809845 A 55.500000 43.500000 360.000000 1 1 15.430313 54.950838 C 6.000000 11.500000 62.500000 3.500000 62.500000 50.000000 Z"/><path id="Left Eye" fill="url(#radialGrad2)" stroke="rgba(196,160,0,1.000000)" d="M 38.000000 20.500000 C 48.000000 20.500000 57.500000 30.000000 57.500000 40.000000 C 57.500000 50.000000 48.000000 59.500000 38.000000 59.500000 C 28.000000 59.500000 18.500000 50.000000 18.500000 40.000000 C 18.500000 30.000000 28.000000 20.500000 38.000000 20.500000 Z"/><path id="Right Eye" fill="url(#radialGrad3)" stroke="rgba(196,160,0,1.000000)" d="M 90.000000 20.500000 C 100.000000 20.500000 109.500000 30.000000 109.500000 40.000000 C 109.500000 50.000000 100.000000 59.500000 90.000000 59.500000 C 80.000000 59.500000 70.500000 50.000000 70.500000 40.000000 C 70.500000 30.000000 80.000000 20.500000 90.000000 20.500000 Z"/><path id="Left Pupil" fill="url(#radialGrad4)" stroke="rgba(32,74,135,1.000000)" d="M 27.000000 33.000000 C 29.000000 31.000000 33.000000 31.000000 35.000000 33.000000 C 37.000000 35.000000 37.000000 39.000000 35.000000 41.000000 C 33.000000 43.000000 29.000000 43.000000 27.000000 41.000000 C 25.000000 39.000000 25.000000 35.000000 27.000000 33.000000 Z"/><path id="Right Pupil" fill="url(#radialGrad5)" stroke="rgba(32,74,135,1.000000)" d="M 79.000000 33.000000 C 81.000000 31.000000 85.000000 31.000000 87.000000 33.000000 C 89.000011 35.060402 89.000000 39.000000 87.000000 41.000000 C 85.000000 43.000000 81.000000 43.000000 79.000000 41.000000 C 77.000000 39.000000 77.000000 35.000000 79.000000 33.000000 Z"/><path id="Mouth" fill="rgba(78,154,6,1.000000)" stroke="none" d="M 64.000000 110.000000 C 91.000000 110.000000 108.000000 97.000000 108.000000 75.000000 L 110.000000 75.000000 C 110.000000 98.000000 92.000000 112.000000 64.000000 112.000000 C 36.000000 112.000000 19.000000 99.000000 19.000000 75.000000 L 21.000000 75.000000 C 21.000000 98.000000 37.000000 110.000000 64.000000 110.000000 Z"/></svg>
