<?xml version="1.0" encoding="UTF-8" standalone="no"?>
<svg version="1.1" width="16" height="16">
<path style="fill:#73d216;stroke:#4e9a06;fill-opacity:1.000000;stroke-opacity:1.000000" d="M 7.500000 7.500000 L 8.500000 7.500000 C 8.500000 1.500000 14.500000 3.000000 13.399250 7.494448 A 6.500000 4.500000 6.283185 1 1 2.599994 7.495230 C 1.500000 3.000000 7.500000 1.500000 7.500000 7.500000 Z" />
<path style="fill:#edd400;stroke:#edd400;fill-opacity:1.000000;stroke-opacity:1.000000" d="M 4.000000 5.000000 C 4.500000 4.500000 5.500000 4.500000 6.000000 5.000000 C 6.500000 5.500000 6.500000 6.500000 6.000000 7.000000 C 5.500000 7.500000 4.500000 7.500000 4.000000 7.000000 C 3.500000 6.500000 3.500000 5.500000 4.000000 5.000000 Z" />
<path style="fill:#edd400;stroke:#edd400;fill-opacity:1.000000;stroke-opacity:1.000000" d="M 9.999096 4.992805 C 10.499096 4.492805 11.499096 4.492805 11.999096 4.992805 C 12.499096 5.492805 12.499096 6.492805 11.999096 6.992805 C 11.499096 7.492805 10.499096 7.492805 9.999096 6.992805 C 9.499096 6.492805 9.499096 5.492805 9.999096 4.992805 Z" />
<path style="fill:#3465a4;stroke:#3465a4;fill-opacity:1.000000;stroke-opacity:1.000000" d="M 4.221421 5.234913 C 4.339088 5.132645 4.596080 5.129999 4.721421 5.234913 C 4.849820 5.359464 4.844150 5.602440 4.721421 5.734913 C 4.589251 5.829889 4.352942 5.835498 4.221421 5.734913 C 4.111351 5.609945 4.103257 5.363922 4.221421 5.234913 Z" />
<path style="fill:#3465a4;stroke:#3465a4;fill-opacity:1.000000;stroke-opacity:1.000000" d="M 10.262998 5.253947 C 10.380666 5.151679 10.637657 5.149032 10.762998 5.253947 C 10.891397 5.378497 10.885727 5.621473 10.762998 5.753947 C 10.630828 5.848922 10.394520 5.854532 10.262998 5.753947 C 10.152928 5.628979 10.144835 5.382956 10.262998 5.253947 Z" />
<path style="fill:#a8a8a8;stroke:#4e9a06;fill-opacity:1.000000;stroke-opacity:1.000000" d="M 3.500000 9.000000 C 3.500000 11.000000 5.000000 12.500000 8.000000 12.500000 C 11.000000 12.500000 12.500000 11.000000 12.500000 9.000000 C 12.500000 11.000000 11.000000 12.500000 8.000000 12.500000 C 5.000000 12.500000 3.500000 11.000000 3.500000 9.000000 Z" />
</svg>
