<?xml version="1.0"?>
<svg version="1.1" width="16" height="16" xmlns="http://www.w3.org/2000/svg"><defs><linearGradient id="linearGrad1" x1="8" y1="4" x2="8" y2="16" gradientUnits="userSpaceOnUse"><stop offset="0.25" stop-color="rgb(138,226,52)" stop-opacity="1"/><stop offset="0.75" stop-color="rgb(115,210,22)" stop-opacity="1"/></linearGradient><radialGradient id="radialGrad2" cx="4.6648788452148438" cy="5.6512222290039062" fx="4.6648788452148438" fy="5.6512222290039062" r="1.8978276985775189" fr="0" gradientUnits="userSpaceOnUse"><stop offset="0.052930017419763511" stop-color="rgb(252,233,79)" stop-opacity="1"/><stop offset="0.69633409654771961" stop-color="rgb(237,212,0)" stop-opacity="1"/></radialGradient><radialGradient id="radialGrad3" cx="4.6648788452148438" cy="5.6512222290039062" fx="4.6648788452148438" fy="5.6512222290039062" r="1.8978276985775189" fr="0" gradientUnits="userSpaceOnUse"><stop offset="0.052930017419763511" stop-color="rgb(252,233,79)" stop-opacity="1"/><stop offset="0.69633409654771961" stop-color="rgb(237,212,0)" stop-opacity="1"/></radialGradient></defs><path id="Head" fill="url(#linearGrad1)" stroke="rgba(77,154,6,0.762774)" d="M 7.370695 7.500000 L 8.500000 7.500000 C 8.500000 1.500000 14.500000 3.000000 13.401374 7.496644 A 6.500000 4.500000 0.000000 1 1 2.599382 7.495862 C 1.500000 3.000000 7.500000 1.500000 7.370695 7.500000 Z"/><path id="Left Eye" fill="url(#radialGrad2)" stroke="none" d="M 5.000000 4.000000 C 6.000000 4.000000 7.000000 5.000000 7.000000 6.000000 C 7.000000 7.000000 6.000000 8.000000 5.000000 8.000000 C 4.000000 8.000000 3.000000 7.000000 3.000000 6.000000 C 3.000000 5.000000 4.000000 4.000000 5.000000 4.000000 Z"/><path id="Right Eye" fill="url(#radialGrad3)" stroke="none" d="M 11.000000 4.000000 C 12.000000 4.000000 12.996695 5.022902 12.996695 6.022902 C 13.000000 7.000000 12.000000 8.000000 11.000000 8.000000 C 10.000000 8.000000 9.000000 7.000000 9.000000 6.000000 C 9.000000 5.000000 10.000000 4.000000 11.000000 4.000000 Z"/><path id="Left Pupil" fill="rgba(32,74,135,1.000000)" stroke="none" d="M 4.118201 5.140089 C 4.287357 4.925586 4.697435 4.936933 4.872777 5.107997 C 5.064561 5.293825 5.063620 5.719871 4.874630 5.885863 C 4.732837 6.048302 4.282546 6.061894 4.113071 5.874846 C 3.938869 5.700862 3.942446 5.332008 4.118201 5.140089 Z"/><path id="Right Pupil" fill="rgba(32,74,135,1.000000)" stroke="none" d="M 10.115825 5.143386 C 10.302642 4.927847 10.655392 4.915311 10.870400 5.111295 C 11.071789 5.293117 11.070031 5.697875 10.872253 5.889161 C 10.728257 6.064114 10.325093 6.075400 10.110694 5.878144 C 9.926517 5.663695 9.930943 5.313137 10.115825 5.143386 Z"/><path id="Mouth" fill="rgba(78,154,6,1.000000)" stroke="none" d="M 4.000000 10.000000 C 4.000000 11.000000 5.000000 12.000000 8.000000 12.000000 C 11.000000 12.000000 12.000000 11.000000 12.000000 10.000000 L 13.000000 10.000000 C 13.000000 12.000000 11.000000 13.000000 8.000000 13.000000 C 5.000000 13.000000 3.000000 12.000000 3.000000 10.000000 L 4.000000 10.000000 Z"/></svg>
