<?xml version="1.0" encoding="UTF-8" standalone="no"?>
<svg version="1.1" width="32" height="32">
<path style="fill:#73d216;stroke:#4e9a06;fill-opacity:1.000000;stroke-opacity:1.000000" d="M 15.500000 13.500000 L 16.500000 13.500000 C 16.500000 1.500000 28.000000 4.000000 27.502177 14.264796 A 13.500000 10.000000 6.283185 1 1 4.519732 14.238474 C 4.000000 4.000000 15.500000 1.500000 15.500000 13.500000 Z" />
<path style="fill:#edd400;stroke:#c4a000;fill-opacity:1.000000;stroke-opacity:1.000000" d="M 6.500000 10.000000 C 6.500000 8.000000 8.000000 6.500000 10.000000 6.500000 C 12.000000 6.500000 13.500000 8.000000 13.500000 10.000000 C 13.500000 12.000000 12.000000 13.500000 10.000000 13.500000 C 8.000000 13.557632 6.500000 12.000000 6.500000 10.000000 Z" />
<path style="fill:#edd400;stroke:#c4a000;fill-opacity:1.000000;stroke-opacity:1.000000" d="M 18.489677 10.006237 C 18.468285 7.997408 19.968285 6.497408 22.000000 6.500000 C 24.000000 6.500000 25.500000 8.000000 25.500000 10.000000 C 25.500000 12.000000 24.000000 13.500000 22.000000 13.500000 C 20.000000 13.500000 18.500000 12.000000 18.489677 10.006237 Z" />
<path style="fill:#3465a4;stroke:#3465a4;fill-opacity:1.000000;stroke-opacity:1.000000" d="M 8.500000 8.500000 C 8.726031 8.267090 9.268585 8.285184 9.500000 8.500000 C 9.769423 8.783958 9.759346 9.264154 9.500000 9.500000 C 9.240553 9.721817 8.758406 9.731564 8.500000 9.500000 C 8.256881 9.244453 8.259996 8.756875 8.500000 8.500000 Z" />
<path style="fill:#3465a4;stroke:#3465a4;fill-opacity:1.000000;stroke-opacity:1.000000" d="M 20.510406 8.509807 C 20.736436 8.276896 21.278990 8.294991 21.510406 8.509807 C 21.779828 8.793765 21.769751 9.273961 21.510406 9.509807 C 21.250959 9.731623 20.768812 9.741370 20.510406 9.509807 C 20.267287 9.254260 20.270402 8.766682 20.510406 8.509807 Z" />
<path style="fill:#ef2929;stroke:#4e9a06;fill-opacity:1.000000;stroke-opacity:1.000000" d="M 5.500000 19.000000 C 5.510998 22.537057 9.510998 26.537057 16.000000 26.500000 C 22.500000 26.500000 26.500000 22.500000 26.500000 19.000000 C 26.500000 22.500000 22.510998 26.537057 16.000000 26.500000 C 9.510998 26.537057 5.510998 22.537057 5.500000 19.000000 Z" />
</svg>
