<?xml version="1.0"?>
<svg version="1.1" width="32" height="32"><defs><linearGradient id="linearGrad1" x1="16" y1="10" x2="16" y2="31" gradientUnits="userSpaceOnUse"><stop offset="0.2857142857142857" stop-color="rgb(138,226,52)" stop-opacity="1"/><stop offset="0.80952380952380953" stop-color="rgb(115,210,22)" stop-opacity="1"/></linearGradient><radialGradient id="radialGrad2" cx="9" cy="9" fx="9" fy="9" r="5.7306842924042449" fr="0" gradientUnits="userSpaceOnUse"><stop offset="0.24675895735075098" stop-color="rgb(252,233,79)" stop-opacity="1"/><stop offset="0.74027687205225301" stop-color="rgb(237,212,0)" stop-opacity="1"/></radialGradient><radialGradient id="radialGrad3" cx="21" cy="9" fx="21" fy="9" r="5.6568542494923797" fr="0" gradientUnits="userSpaceOnUse"><stop offset="0.25" stop-color="rgb(252,233,79)" stop-opacity="1"/><stop offset="0.7354482289907095" stop-color="rgb(237,212,0)" stop-opacity="1"/></radialGradient></defs><path id="Head" fill="url(#linearGrad1)" stroke="rgba(77,154,6,0.770073)" d="M 15.500000 13.500000 L 16.500000 13.500000 C 16.500000 1.500000 28.000000 4.000000 27.482692 14.275277 A 13.500564 9.999993 0.065621 1 1 4.489536 14.270581 C 4.000000 4.000000 15.500000 1.500000 15.500000 13.500000 Z"/><path id="Right Eye" fill="url(#radialGrad2)" stroke="rgba(196,160,0,1.000000)" d="M 6.500000 10.000000 C 6.500000 8.000000 8.000000 6.500000 10.000000 6.500000 C 12.000000 6.500000 13.500000 8.000000 13.500000 10.000000 C 13.500000 12.000000 12.000000 13.500000 10.000000 13.500000 C 8.000000 13.557632 6.500000 12.000000 6.500000 10.000000 Z"/><path id="Left Eye" fill="url(#radialGrad3)" stroke="rgba(196,160,0,1.000000)" d="M 18.489677 10.006237 C 18.468285 7.997408 19.968285 6.497408 22.000000 6.500000 C 24.000000 6.500000 25.500000 8.000000 25.500000 10.000000 C 25.500000 12.000000 24.000000 13.500000 22.000000 13.500000 C 20.000000 13.500000 18.500000 12.000000 18.489677 10.006237 Z"/><path id="Left Pupil" fill="rgba(52,101,164,1.000000)" stroke="rgba(52,101,164,1.000000)" d="M 8.500000 8.500000 C 8.726031 8.267090 9.268585 8.285184 9.500000 8.500000 C 9.769423 8.783958 9.759346 9.264154 9.500000 9.500000 C 9.240553 9.721817 8.758406 9.731564 8.500000 9.500000 C 8.256881 9.244453 8.259996 8.756875 8.500000 8.500000 Z"/><path id="Right Pupil" fill="rgba(52,101,164,1.000000)" stroke="rgba(52,101,164,1.000000)" d="M 20.510406 8.509807 C 20.736436 8.276896 21.278990 8.294991 21.510406 8.509807 C 21.779828 8.793765 21.769751 9.273961 21.510406 9.509807 C 21.250959 9.731623 20.768812 9.741370 20.510406 9.509807 C 20.267287 9.254260 20.270402 8.766682 20.510406 8.509807 Z"/><path id="Mouth" fill="rgba(78,154,6,1.000000)" stroke="none" d="M 5.000000 19.000000 C 5.510998 22.537057 9.500000 27.000000 16.000000 27.000000 C 22.500000 27.000000 26.500000 22.500000 27.000000 19.000000 L 26.000000 19.000000 C 26.000000 22.000000 22.000000 26.000000 16.000000 26.000000 C 10.000000 26.000000 6.000000 22.000000 6.000000 19.000000 L 5.000000 19.000000 Z"/></svg>
