<?xml version="1.0"?>
<svg version="1.1" width="32" height="32" xmlns="http://www.w3.org/2000/svg"><defs><radialGradient id="radialGrad1" cx="16" cy="8" fx="16" fy="8" r="23" fr="0" gradientUnits="userSpaceOnUse"><stop offset="0.2608695652173913" stop-color="rgb(138,226,52)" stop-opacity="1"/><stop offset="0.82608695652173914" stop-color="rgb(115,210,22)" stop-opacity="1"/><stop offset="0.95652173913043481" stop-color="rgb(78,154,6)" stop-opacity="1"/></radialGradient><radialGradient id="radialGrad2" cx="9" cy="9" fx="9" fy="9" r="9.5131487952202249" fr="0" gradientUnits="userSpaceOnUse"><stop offset="0.24675895735075098" stop-color="rgb(252,233,79)" stop-opacity="1"/><stop offset="0.74027687205225301" stop-color="rgb(237,212,0)" stop-opacity="1"/></radialGradient><radialGradient id="radialGrad3" cx="21" cy="9" fx="21" fy="9" r="5.6568542494923797" fr="0" gradientUnits="userSpaceOnUse"><stop offset="0.25" stop-color="rgb(252,233,79)" stop-opacity="1"/><stop offset="0.7354482289907095" stop-color="rgb(237,212,0)" stop-opacity="1"/></radialGradient></defs><path id="Head" fill="url(#radialGrad1)" stroke="rgba(77,154,6,0.770073)" d="M 15.500000 13.500000 L 16.500000 13.500000 C 16.500000 1.500000 29.000000 4.000000 27.355338 14.125123 A 13.500564 9.999993 0.065621 1 1 4.658089 14.072900 C 3.000000 4.000000 15.500000 1.500000 15.500000 13.500000 Z"/><path id="Right Eye" fill="url(#radialGrad2)" stroke="rgba(196,160,0,1.000000)" d="M 5.500000 11.000000 C 5.500000 8.500000 7.500000 6.500000 10.000000 6.500000 C 12.500000 6.500000 14.500000 8.500000 14.500000 11.000000 C 14.500000 13.500000 12.500000 15.500000 10.000000 15.500000 C 7.500000 15.500000 5.500000 13.500000 5.500000 11.000000 Z"/><path id="Left Eye" fill="url(#radialGrad3)" stroke="rgba(196,160,0,1.000000)" d="M 17.500000 11.000000 C 17.500000 8.500000 19.500000 6.500000 22.000000 6.500000 C 24.500000 6.500000 26.500000 8.500000 26.500000 11.000000 C 26.500000 13.500000 24.500000 15.500000 22.000000 15.500000 C 19.500000 15.500000 17.500000 13.500000 17.500000 11.000000 Z"/><path id="Left Pupil" fill="rgba(52,101,164,1.000000)" stroke="rgba(32,74,135,1.000000)" d="M 7.596651 9.424343 C 8.000000 9.000000 8.784834 9.000000 9.220999 9.366197 C 9.652847 9.776466 9.707710 10.500000 9.246876 11.000000 C 8.770216 11.500000 8.000000 11.500000 7.612080 11.072954 C 7.217045 10.569110 7.247026 9.842178 7.596651 9.424343 Z"/><path id="Right Pupil" fill="rgba(52,101,164,1.000000)" stroke="rgba(32,74,135,1.000000)" d="M 19.619795 9.363256 C 20.000000 9.000000 20.746033 9.000000 21.154156 9.340093 C 21.500000 9.700864 21.500000 10.500000 21.161524 10.866190 C 20.800165 11.181906 20.000000 11.192668 19.620605 10.834695 C 19.296978 10.500000 19.291084 9.718492 19.619795 9.363256 Z"/><path id="Mouth" fill="rgba(78,154,6,1.000000)" stroke="none" d="M 6.000000 19.000000 C 6.000000 23.000000 9.500000 27.000000 16.000000 27.000000 C 22.500000 27.000000 26.000000 24.000000 26.000000 19.000000 L 25.000000 19.000000 C 25.000000 23.000000 22.000000 26.000000 16.000000 26.000000 C 10.000000 26.000000 7.000000 22.000000 7.000000 19.000000 L 6.000000 19.000000 Z"/></svg>
