<?xml version="1.0"?>
<svg version="1.1" width="32" height="32"><defs><linearGradient id="linearGrad1" x1="16" y1="15" x2="16" y2="31" gradientUnits="userSpaceOnUse"><stop offset="0.0625" stop-color="rgb(138,226,52)" stop-opacity="1"/><stop offset="0.625" stop-color="rgb(115,210,22)" stop-opacity="1"/><stop offset="0.94999999999999996" stop-color="rgb(78,154,6)" stop-opacity="1"/></linearGradient><radialGradient id="radialGrad2" cx="9" cy="9" fx="9" fy="9" r="9.5131487952202232" fr="0" gradientUnits="userSpaceOnUse"><stop offset="0.24675895735075098" stop-color="rgb(252,233,79)" stop-opacity="1"/><stop offset="0.74027687205225301" stop-color="rgb(237,212,0)" stop-opacity="1"/></radialGradient><radialGradient id="radialGrad3" cx="21" cy="9" fx="21" fy="9" r="5.6568542494923797" fr="0" gradientUnits="userSpaceOnUse"><stop offset="0.25" stop-color="rgb(252,233,79)" stop-opacity="1"/><stop offset="0.7354482289907095" stop-color="rgb(237,212,0)" stop-opacity="1"/></radialGradient></defs><path id="Head" fill="url(#linearGrad1)" stroke="rgba(77,154,6,0.770073)" d="M 15.500000 13.500000 L 16.500000 13.500000 C 16.500000 1.500000 28.000000 4.000000 27.482692 14.275277 A 13.500564 9.999993 0.065621 1 1 4.489536 14.270581 C 4.000000 4.000000 15.500000 1.500000 15.500000 13.500000 Z"/><path id="Right Eye" fill="url(#radialGrad2)" stroke="rgba(196,160,0,1.000000)" d="M 6.500000 10.000000 C 6.500000 8.000000 8.000000 6.500000 10.000000 6.500000 C 12.000000 6.500000 13.500000 8.000000 13.500000 10.000000 C 13.500000 12.000000 12.000000 13.500000 10.000000 13.500000 C 8.000000 13.557632 6.500000 12.000000 6.500000 10.000000 Z"/><path id="Left Eye" fill="url(#radialGrad3)" stroke="rgba(196,160,0,1.000000)" d="M 18.489677 10.006237 C 18.468285 7.997408 19.968285 6.497408 22.000000 6.500000 C 24.000000 6.500000 25.500000 8.000000 25.500000 10.000000 C 25.500000 12.000000 24.000000 13.500000 22.000000 13.500000 C 20.000000 13.500000 18.500000 12.000000 18.489677 10.006237 Z"/><path id="Left Pupil" fill="rgba(52,101,164,1.000000)" stroke="rgba(52,101,164,1.000000)" d="M 7.990162 8.492376 C 8.216193 8.259466 8.758747 8.277560 8.990162 8.492376 C 9.259585 8.776334 9.249508 9.256530 8.990162 9.492376 C 8.730715 9.714193 8.248568 9.723940 7.990162 9.492376 C 7.747043 9.236829 7.750158 8.749251 7.990162 8.492376 Z"/><path id="Right Pupil" fill="rgba(52,101,164,1.000000)" stroke="rgba(52,101,164,1.000000)" d="M 19.977842 8.484442 C 20.203872 8.251531 20.746426 8.269626 20.977842 8.484442 C 21.247264 8.768400 21.237187 9.248596 20.977842 9.484442 C 20.718395 9.706258 20.236248 9.716005 19.977842 9.484442 C 19.734723 9.228895 19.737838 8.741317 19.977842 8.484442 Z"/><path id="Mouth" fill="rgba(78,154,6,1.000000)" stroke="none" d="M 6.000000 19.000000 C 6.000000 23.000000 9.500000 27.000000 16.000000 27.000000 C 22.500000 27.000000 26.000000 24.000000 26.000000 19.000000 L 25.000000 19.000000 C 25.000000 23.000000 22.000000 26.000000 16.000000 26.000000 C 10.000000 26.000000 7.000000 22.000000 7.000000 19.000000 L 6.000000 19.000000 Z"/></svg>
