<?xml version="1.0"?>
<svg version="1.1" width="64" height="64" xmlns="http://www.w3.org/2000/svg"><defs><linearGradient id="linearGrad1" x1="32" y1="21" x2="32" y2="61" gradientUnits="userSpaceOnUse"><stop offset="0.14999999999999999" stop-color="rgb(138,226,52)" stop-opacity="1"/><stop offset="0.84999999999999998" stop-color="rgb(115,210,22)" stop-opacity="1"/><stop offset="0.97499999999999998" stop-color="rgb(78,154,6)" stop-opacity="1"/></linearGradient><radialGradient id="radialGrad2" cx="16" cy="18" fx="16" fy="18" r="14.142135623730951" fr="0" gradientUnits="userSpaceOnUse"><stop offset="0.20000000000000001" stop-color="rgb(252,233,79)" stop-opacity="1"/><stop offset="0.80000000000000004" stop-color="rgb(237,212,0)" stop-opacity="1"/></radialGradient><radialGradient id="radialGrad3" cx="43" cy="18" fx="43" fy="18" r="14.142135623730951" fr="0" gradientUnits="userSpaceOnUse"><stop offset="0.20271081924438478" stop-color="rgb(252,233,79)" stop-opacity="1"/><stop offset="0.80000000000000004" stop-color="rgb(237,212,0)" stop-opacity="1"/></radialGradient></defs><path id="New Path" fill="url(#linearGrad1)" stroke="rgba(77,154,6,0.827703)" d="M 31.500000 27.500000 L 32.500000 27.500000 C 32.500000 3.500000 60.500000 4.500000 56.278278 31.576428 A 27.500000 19.000000 360.000000 1 1 7.676813 31.634999 C 3.500000 4.500000 31.500000 3.500000 31.500000 27.500000 Z"/><path id="Path" fill="url(#radialGrad2)" stroke="rgba(196,160,0,1.000000)" d="M 9.500000 20.500000 C 9.500000 15.500000 13.500000 11.500000 18.500000 11.500000 C 23.500000 11.500000 27.500000 15.500000 27.500000 20.500000 C 27.500000 25.500000 23.500000 29.500000 18.500000 29.500000 C 13.500000 29.500000 9.500000 25.500000 9.500000 20.500000 Z"/><path id="Path" fill="url(#radialGrad3)" stroke="rgba(196,160,0,1.000000)" d="M 36.490757 20.545853 C 36.490757 15.545853 40.490757 11.545853 45.490757 11.545853 C 50.490757 11.545853 54.490757 15.545853 54.490757 20.545853 C 54.490757 25.545853 50.490757 29.545853 45.490757 29.545853 C 40.490757 29.545853 36.490757 25.545853 36.490757 20.545853 Z"/><path id="Path" fill="rgba(52,101,164,1.000000)" stroke="rgba(32,74,135,1.000000)" d="M 13.000000 16.000000 C 14.000000 15.000000 16.000000 15.000000 17.000000 16.000000 C 18.000000 17.000000 18.000000 19.000000 17.000000 20.000000 C 16.000000 21.000000 14.000000 21.000000 13.000000 20.000000 C 12.000000 19.000000 12.000000 17.000000 13.000000 16.000000 Z"/><path id="Path" fill="rgba(52,101,164,1.000000)" stroke="rgba(32,74,135,1.000000)" d="M 40.000000 16.000000 C 41.000000 15.000000 43.000000 15.000000 44.000000 16.000000 C 45.000000 17.000000 45.000000 19.000000 44.000000 20.000000 C 43.000000 21.000000 41.000000 21.000000 40.000000 20.000000 C 39.000000 19.000000 39.000000 17.000000 40.000000 16.000000 Z"/><path id="Path" fill="rgba(78,154,6,1.000000)" stroke="none" d="M 9.000000 39.000000 L 10.000000 39.000000 C 10.000000 48.000000 19.000000 54.000000 32.000000 54.000000 C 45.000000 54.000000 54.000000 48.000000 54.000000 39.000000 L 55.000000 39.000000 C 55.000000 49.000000 46.000000 55.000000 32.000000 55.000000 C 18.000000 55.000000 9.000000 49.000000 9.000000 39.000000 Z"/></svg>
