<?xml version="1.0"?>
<svg version="1.1" width="64" height="64"><defs><radialGradient id="radialGrad1" cx="32" cy="6" fx="32" fy="6" r="58" fr="0" gradientUnits="userSpaceOnUse"><stop offset="0.20512820512820512" stop-color="rgb(138,226,52)" stop-opacity="1"/><stop offset="0.84482758620689657" stop-color="rgb(115,210,22)" stop-opacity="1"/><stop offset="0.96551724137931039" stop-color="rgb(78,154,6)" stop-opacity="1"/></radialGradient><radialGradient id="radialGrad2" cx="16" cy="18" fx="16" fy="18" r="14.142135623730951" fr="0" gradientUnits="userSpaceOnUse"><stop offset="0.20000000000000001" stop-color="rgb(252,233,79)" stop-opacity="1"/><stop offset="0.80000000000000004" stop-color="rgb(237,212,0)" stop-opacity="1"/></radialGradient><radialGradient id="radialGrad3" cx="43" cy="18" fx="43" fy="18" r="14.142135623730951" fr="0" gradientUnits="userSpaceOnUse"><stop offset="0.20271081924438478" stop-color="rgb(252,233,79)" stop-opacity="1"/><stop offset="0.80000000000000004" stop-color="rgb(237,212,0)" stop-opacity="1"/></radialGradient></defs><path id="Path" fill="url(#radialGrad1)" stroke="rgba(77,154,6,0.770073)" d="M 30.500000 26.000000 C 30.500000 27.000000 31.000000 27.500000 32.000000 27.500000 C 33.000000 27.500000 33.500000 27.000000 33.500000 26.000000 C 33.500000 3.500000 61.500000 6.000000 55.882269 29.580990 A 28.489903 20.014380 -0.028914 1 1 8.202911 29.501726 C 2.500000 6.000000 30.500000 3.500000 30.500000 26.000000 Z"/><path id="Path" fill="url(#radialGrad2)" stroke="rgba(196,160,0,1.000000)" d="M 9.500000 20.500000 C 9.500000 15.500000 13.500000 11.500000 18.500000 11.500000 C 23.500000 11.500000 27.500000 15.500000 27.500000 20.500000 C 27.500000 25.500000 23.500000 29.500000 18.500000 29.500000 C 13.500000 29.500000 9.500000 25.500000 9.500000 20.500000 Z"/><path id="Path" fill="url(#radialGrad3)" stroke="rgba(196,160,0,1.000000)" d="M 36.490757 20.545853 C 36.490757 15.545853 40.490757 11.545853 45.490757 11.545853 C 50.490757 11.545853 54.490757 15.545853 54.490757 20.545853 C 54.490757 25.545853 50.490757 29.545853 45.490757 29.545853 C 40.490757 29.545853 36.490757 25.545853 36.490757 20.545853 Z"/><path id="Path" fill="rgba(52,101,164,1.000000)" stroke="rgba(32,74,135,1.000000)" d="M 14.000000 16.000000 C 15.000000 15.000000 17.000000 15.000000 18.000000 16.000000 C 19.000000 17.000000 19.000000 19.000000 18.000000 20.000000 C 17.000000 21.000000 15.000000 21.000000 14.000000 20.000000 C 13.000000 19.000000 13.000000 17.000000 14.000000 16.000000 Z"/><path id="Path" fill="rgba(52,101,164,1.000000)" stroke="rgba(32,74,135,1.000000)" d="M 41.023338 16.005547 C 42.023338 15.005547 44.023338 15.005547 45.023338 16.005547 C 46.023338 17.005547 46.023338 19.005547 45.023338 20.005547 C 44.023338 21.005547 42.023338 21.005547 41.023338 20.005547 C 40.023338 19.005547 40.023338 17.005547 41.023338 16.005547 Z"/><path id="Path" fill="rgba(78,154,6,1.000000)" stroke="none" d="M 9.000000 39.000000 L 10.000000 39.000000 C 10.000000 49.000000 17.000000 54.000000 32.000000 54.000000 C 47.000000 54.000000 54.000000 49.000000 54.000000 39.000000 L 55.000000 39.000000 C 55.000000 50.000000 47.000000 55.000000 32.000000 55.000000 C 17.000000 55.000000 9.000000 50.000000 9.000000 39.000000 Z"/></svg>
