<?xml version="1.0" encoding="UTF-8" standalone="no"?>
<svg version="1.1" width="64" height="64">
<path style="fill:#73d216;stroke:#4e9a06;fill-opacity:1.000000;stroke-opacity:1.000000" d="M 30.500000 26.000000 C 30.500000 27.000000 31.000000 27.500000 32.000000 27.500000 C 33.000000 27.500000 33.500000 27.000000 33.500000 26.000000 C 33.500000 3.500000 61.500000 6.000000 55.800327 29.498013 A 28.500000 20.000000 6.283185 1 1 8.195736 29.502207 C 2.500000 6.000000 30.500000 3.500000 30.500000 26.000000 Z" />
<path style="fill:#edd400;stroke:#c4a000;fill-opacity:1.000000;stroke-opacity:1.000000" d="M 9.500000 20.500000 C 9.500000 15.500000 13.500000 11.500000 18.500000 11.500000 C 23.500000 11.500000 27.500000 15.500000 27.500000 20.500000 C 27.500000 25.500000 23.500000 29.500000 18.500000 29.500000 C 13.500000 29.500000 9.500000 25.500000 9.500000 20.500000 Z" />
<path style="fill:#edd400;stroke:#c4a000;fill-opacity:1.000000;stroke-opacity:1.000000" d="M 36.490757 20.545853 C 36.490757 15.545853 40.490757 11.545853 45.490757 11.545853 C 50.490757 11.545853 54.490757 15.545853 54.490757 20.545853 C 54.490757 25.545853 50.490757 29.545853 45.490757 29.545853 C 40.490757 29.545853 36.490757 25.545853 36.490757 20.545853 Z" />
<path style="fill:#3465a4;stroke:#204a87;fill-opacity:1.000000;stroke-opacity:1.000000" d="M 14.000000 16.000000 C 15.000000 15.000000 17.000000 15.000000 18.000000 16.000000 C 19.000000 17.000000 19.000000 19.000000 18.000000 20.000000 C 17.000000 21.000000 15.000000 21.000000 14.000000 20.000000 C 13.000000 19.000000 13.000000 17.000000 14.000000 16.000000 Z" />
<path style="fill:#3465a4;stroke:#204a87;fill-opacity:1.000000;stroke-opacity:1.000000" d="M 41.023338 16.005547 C 42.023338 15.005547 44.023338 15.005547 45.023338 16.005547 C 46.023338 17.005547 46.023338 19.005547 45.023338 20.005547 C 44.023338 21.005547 42.023338 21.005547 41.023338 20.005547 C 40.023338 19.005547 40.023338 17.005547 41.023338 16.005547 Z" />
<path style="fill:#ef2929;stroke:#4e9a06;fill-opacity:1.000000;stroke-opacity:1.000000" d="M 9.500000 39.000000 C 9.500000 48.500000 18.000000 54.500000 32.000000 54.500000 C 46.000000 54.500000 54.500000 48.500000 54.500000 39.000000 C 54.500000 48.500000 46.000000 54.500000 32.000000 54.500000 C 18.000000 54.500000 9.500000 48.500000 9.500000 39.000000 Z" />
</svg>
